<svg height="512pt" viewBox="0 0 512.00065 512" width="512pt" xmlns="http://www.w3.org/2000/svg">
    <path d="m482.144531 208h-56.945312c-3.695313-13.148438-8.917969-25.8125-15.566407-37.742188l40.222657-40.226562c5.40625-5.414062 5.40625-14.183594 0-19.597656l-48.253907-48.289063c-5.417968-5.40625-14.1875-5.40625-19.601562 0l-40.253906 40.257813c-11.929688-6.660156-24.597656-11.894532-37.746094-15.601563v-56.945312c0-7.652344-6.203125-13.855469-13.855469-13.855469h-68.289062c-7.652344 0-13.855469 6.203125-13.855469 13.855469v56.945312c-13.148438 3.695313-25.816406 8.917969-37.742188 15.566407l-40.226562-40.222657c-5.414062-5.40625-14.183594-5.40625-19.597656 0l-48.289063 48.253907c-5.40625 5.417968-5.40625 14.1875 0 19.601562l40.253907 40.253906c-6.65625 11.929688-11.894532 24.597656-15.597657 37.746094h-56.945312c-7.652344 0-13.855469 6.203125-13.855469 13.855469v68.289062c0 7.652344 6.203125 13.855469 13.855469 13.855469h56.945312c3.703125 13.148438 8.941407 25.816406 15.597657 37.742188l-40.253907 40.222656c-5.40625 5.417968-5.40625 14.1875 0 19.601562l48.253907 48.289063c5.417968 5.40625 14.1875 5.40625 19.601562 0l40.253906-40.257813c11.929688 6.660156 24.597656 11.894532 37.746094 15.601563v56.941406c0 7.65625 6.203125 13.859375 13.855469 13.859375h68.289062c7.652344 0 13.855469-6.203125 13.855469-13.859375v-56.941406c13.144531-3.695313 25.8125-8.921875 37.742188-15.570313l40.222656 40.226563c5.417968 5.402343 14.1875 5.402343 19.601562 0l48.289063-48.257813c5.40625-5.414062 5.40625-14.183594 0-19.597656l-40.257813-40.257812c6.660156-11.925782 11.894532-24.59375 15.601563-37.742188h56.941406c7.652344 0 13.855469-6.203125 13.855469-13.855469v-68.289062c.003906-7.652344-6.199219-13.855469-13.851563-13.855469zm-226.144531 144c-53.019531 0-96-42.980469-96-96s42.980469-96 96-96 96 42.980469 96 96-42.980469 96-96 96zm0 0" fill="#8A8A8A"/>
    <g fill="#3B3B3B">
        <path d="m290.144531 512h-68.289062c-16.480469-.015625-29.835938-13.375-29.855469-29.855469v-45.230469c-6.363281-2.246093-12.609375-4.820312-18.703125-7.714843l-32 32c-11.816406 11.296875-30.425781 11.296875-42.242187 0l-48.207032-48.320313c-11.664062-11.640625-11.683594-30.535156-.039062-42.199218.011718-.011719.027344-.027344.039062-.039063l32-32c-2.90625-6.074219-5.5-12.296875-7.757812-18.640625h-45.234375c-16.480469-.015625-29.8359378-13.375-29.855469-29.855469v-68.289062c.0195312-16.480469 13.375-29.835938 29.855469-29.855469h45.230469c2.246093-6.363281 4.820312-12.609375 7.714843-18.703125l-32-32c-11.664062-11.644531-11.683593-30.535156-.042969-42.203125.015626-.011719.027344-.023438.042969-.039062l48.398438-48.207032c11.816406-11.296875 30.425781-11.296875 42.238281 0l32.003906 32c6.046875-2.90625 12.242188-5.496094 18.558594-7.757812v-45.234375c.019531-16.480469 13.375-29.8359378 29.855469-29.855469h68.289062c16.480469.0195312 29.835938 13.375 29.855469 29.855469v45.234375c6.363281 2.242187 12.609375 4.816406 18.703125 7.710937l32-32c11.816406-11.296875 30.425781-11.296875 42.242187 0l48.207032 48.398438c11.664062 11.644531 11.683594 30.535156.039062 42.199219-.011718.015624-.027344.027343-.039062.042968l-32 32c2.90625 6.046875 5.496094 12.242188 7.761718 18.558594h45.230469c16.480469.019531 29.839844 13.375 29.855469 29.855469v68.289062c-.015625 16.480469-13.375 29.839844-29.855469 29.855469h-45.230469c-2.242187 6.363281-4.820312 12.609375-7.714843 18.703125l32.003906 32c11.664063 11.644531 11.679687 30.539063.039063 42.203125-.015626.011719-.027344.023438-.039063.039062l-48.257813 48.253907c-11.8125 11.296875-30.425781 11.296875-42.238281 0l-32-32c-6.097656 2.894531-12.339843 5.46875-18.703125 7.710937v45.234375c-.023437 16.480469-13.378906 29.839844-29.859375 29.855469zm-66.144531-32h64v-54.800781c.003906-7.15625 4.757812-13.441407 11.648438-15.390625 11.941406-3.363282 23.449218-8.109375 34.289062-14.144532 6.269531-3.53125 14.125-2.445312 19.199219 2.65625l38.703125 38.6875 45.25-45.246093-38.6875-38.707031c-5.105469-5.074219-6.191406-12.929688-2.65625-19.199219 6.03125-10.839844 10.78125-22.347657 14.144531-34.289063 1.964844-6.828125 8.203125-11.539062 15.308594-11.566406h54.800781v-64h-54.800781c-7.15625-.003906-13.441407-4.757812-15.390625-11.648438-3.363282-11.941406-8.109375-23.449218-14.144532-34.289062-3.53125-6.265625-2.445312-14.125 2.65625-19.199219l38.6875-38.703125-45.246093-45.167968-38.707031 38.6875c-5.074219 5.101562-12.929688 6.1875-19.199219 2.65625-10.839844-6.035157-22.34375-10.78125-34.285157-14.144532-6.859374-1.976562-11.578124-8.253906-11.570312-15.390625v-54.800781h-64v54.800781c0 7.160157-4.757812 13.445313-11.648438 15.390625-11.941406 3.363282-23.449218 8.109375-34.285156 14.144532-6.269531 3.535156-14.128906 2.445312-19.203125-2.65625l-38.621093-38.6875-45.25 45.25 38.6875 38.703124c5.101562 5.074219 6.191406 12.929688 2.65625 19.199219-6.035157 10.839844-10.78125 22.347657-14.144532 34.289063-1.976562 6.855468-8.253906 11.574218-15.390625 11.566406h-54.800781v64h54.800781c7.15625.003906 13.445313 4.761719 15.390625 11.648438 3.363282 11.941406 8.109375 23.449218 14.144532 34.289062 3.535156 6.269531 2.445312 14.125-2.65625 19.199219l-38.6875 38.625 45.25 45.246093 38.703124-38.605468c5.074219-5.105469 12.929688-6.191406 19.199219-2.65625 10.839844 6.035156 22.347657 10.78125 34.289063 14.144531 6.886718 1.945313 11.644531 8.230469 11.648437 15.390625zm0 0"/>
        <path d="m256 368c-61.855469 0-112-50.144531-112-112s50.144531-112 112-112 112 50.144531 112 112c-.078125 61.824219-50.175781 111.921875-112 112zm0-192c-44.183594 0-80 35.816406-80 80s35.816406 80 80 80 80-35.816406 80-80c-.050781-44.160156-35.839844-79.945312-80-80zm0 0"/>
    </g>
</svg>