<?xml version="1.0" encoding="iso-8859-1"?>
<!-- Generator: Adobe Illustrator 16.0.0, SVG Export Plug-In . SVG Version: 6.00 Build 0)  -->
<!DOCTYPE svg PUBLIC "-//W3C//DTD SVG 1.1//EN" "http://www.w3.org/Graphics/SVG/1.1/DTD/svg11.dtd">
<svg xmlns="http://www.w3.org/2000/svg" xmlns:xlink="http://www.w3.org/1999/xlink" version="1.1" id="Capa_1" x="0px" y="0px" width="512px" height="512px" viewBox="0 0 612 612" style="enable-background:new 0 0 612 612;" xml:space="preserve">
<g>
	<g>
		<path d="M578.08,270.582H224.685l98.746-135.035c5.32-7.288,7.489-16.143,6.111-24.939c-1.393-8.859-6.218-16.69-13.593-22.054    c-5.793-4.211-12.629-6.438-19.776-6.438c-10.885,0-21.208,5.285-27.595,14.116L130.662,285.938    c-0.189,0.252-0.37,0.531-0.539,0.822c-0.842,1.224-1.622,2.539-2.287,3.849c-0.063,0.122-0.138,0.271-0.205,0.417    c-1.511,3.05-2.546,6.32-3.117,9.941c-0.28,1.85-0.414,3.518-0.414,5.108c0,1.603,0.138,3.274,0.449,5.317    c0.547,3.471,1.618,6.809,3.239,10.027c0.756,1.488,1.629,2.932,2.55,4.227c0.083,0.129,0.169,0.26,0.252,0.373l137.978,189.668    c6.344,8.76,16.624,13.986,27.49,13.986c7.222,0,14.109-2.25,19.89-6.494c7.391-5.375,12.22-13.168,13.597-21.939    c1.362-8.686-0.811-17.467-6.119-24.738l-98.742-135.086H578.08c18.387,0,33.92-16.219,33.92-35.419    C612,286.8,596.467,270.582,578.08,270.582z M578.08,325.679H209.179c-2.963,0-5.675,1.664-7.017,4.311    c-1.342,2.641-1.086,5.816,0.661,8.205L310.715,485.79c2.825,3.865,3.99,8.488,3.278,13.012    c-0.725,4.611-3.317,8.748-7.332,11.668c-3.042,2.232-6.809,3.463-10.606,3.463c-5.923,0-11.295-2.727-14.75-7.492    L143.484,316.993c-0.071-0.109-0.146-0.221-0.212-0.314c-0.547-0.756-1.035-1.559-1.48-2.443    c-0.834-1.654-1.405-3.438-1.716-5.412c-0.165-1.066-0.24-1.94-0.24-2.747s0.075-1.68,0.256-2.877    c0.291-1.854,0.862-3.632,1.759-5.423c0.016-0.036,0.036-0.075,0.055-0.118c0.413-0.803,0.87-1.55,1.374-2.251    c0.126-0.181,0.252-0.378,0.37-0.579l137.663-189.356c3.448-4.77,9-7.619,14.853-7.619c3.798,0,7.434,1.185,10.516,3.428    c3.967,2.885,6.561,7.06,7.297,11.759c0.728,4.636-0.434,9.331-3.271,13.211l-107.88,147.553    c-1.751,2.393-2.007,5.565-0.665,8.209c1.342,2.641,4.054,4.31,7.017,4.31H578.08c9.682,0,18.178,9.197,18.178,19.677    S587.762,325.679,578.08,325.679z" fill="#00EEEE"/>
		<path d="M35.419,36.456C16.218,36.456,0,51.993,0,70.38v471.24c0,18.385,16.218,33.924,35.419,33.924s35.419-15.539,35.419-33.924    V70.38C70.839,51.993,54.617,36.456,35.419,36.456z M55.097,541.62c0,9.684-9.197,18.182-19.677,18.182    c-10.48,0-19.677-8.498-19.677-18.182V70.38c0-9.685,9.193-18.182,19.677-18.182c10.484,0,19.677,8.497,19.677,18.182V541.62z" fill="#00EEEE"/>
	</g>
</g>
<g>
</g>
<g>
</g>
<g>
</g>
<g>
</g>
<g>
</g>
<g>
</g>
<g>
</g>
<g>
</g>
<g>
</g>
<g>
</g>
<g>
</g>
<g>
</g>
<g>
</g>
<g>
</g>
<g>
</g>
</svg>
